<svg width="38" height="38" viewBox="0 0 38 38" fill="none" xmlns="http://www.w3.org/2000/svg">
<path d="M7.17492 0.499962C3.43241 0.499962 0.418945 3.51343 0.418945 7.25594V30.744C0.418945 34.4865 3.43241 37.5 7.17492 37.5H19.9053V23.0353H16.0804V17.8275H19.9053V13.3783C19.9053 9.88272 22.1652 6.67319 27.3712 6.67319C29.479 6.67319 31.0376 6.87554 31.0376 6.87554L30.915 11.7387C30.915 11.7387 29.3254 11.7237 27.5908 11.7237C25.7135 11.7237 25.4124 12.5887 25.4124 14.0247V17.8276H31.0642L30.8179 23.0353H25.4124V37.5H30.663C34.4055 37.5 37.4189 34.4866 37.4189 30.7441V7.25598C37.4189 3.51346 34.4055 0.499999 30.663 0.499999H7.17489L7.17492 0.499962Z" fill="url(#paint0_linear_132_508)"/>
<defs>
<linearGradient id="paint0_linear_132_508" x1="18.9189" y1="0.499961" x2="34.6943" y2="46" gradientUnits="userSpaceOnUse">
<stop offset="0.385417" stop-color="#FE7A8F"/>
<stop offset="1" stop-color="white"/>
</linearGradient>
</defs>
</svg>
