<svg width="719" height="782" viewBox="0 0 719 782" fill="none" xmlns="http://www.w3.org/2000/svg">
<path d="M600.278 288.446C600.146 289.661 599.793 290.921 599.274 292.118C599.702 290.473 600.005 288.755 600.302 287.126L600.278 288.446ZM349.289 136.168C347.377 140.936 345.412 149.86 346.699 156.894C345.501 161.745 345.137 167.463 345.316 174.409C345.934 198.57 358.797 221.863 361.976 247.822C365.248 273.755 365.398 291.225 374.823 302.656C384.255 314.074 390.907 297.54 390.907 297.54C393.826 279.888 386.698 266.975 387.125 256.211C387.489 245.403 395.549 222.732 403.142 210.832C410.751 198.9 419.589 217.767 414.162 242.336C408.713 266.852 403.915 283.964 408.022 297.035C412.056 310.254 429.353 272.809 439.081 256.091C448.758 239.315 466.824 220.653 493.318 222.936C519.75 225.109 449.095 282.93 433.754 298.071C418.411 313.206 417.31 322.63 432.788 324.997C448.234 327.258 459.988 305.717 479.541 321.136C499.053 336.635 424.981 342.233 426.74 356.901C428.432 371.541 482.837 355.82 515.577 352.312C542.497 349.385 569.798 335.538 584.065 321.355C595.642 314.516 606.122 304.564 610.437 292.382C614.895 279.593 611.351 259.53 605.44 246.079C649.286 212.242 604.549 134.625 579.563 103.617C563.225 83.3651 538.288 68.1268 513.453 65.7839C496.544 64.2071 479.783 71.7142 465.212 82.1417C436.022 58.0891 406.482 64.8132 384.643 86.1723C367.999 97.401 356.882 117.125 349.289 136.168Z" fill="#FE7A8F" fill-opacity="0.8"/>
<path d="M635.016 506.073L634.139 505.129C634.72 504.687 635.278 504.203 635.805 503.782C635.553 504.532 635.309 505.34 635.016 506.073ZM463.364 380.633C454.3 389.983 474.472 397.985 474.472 397.985C506.274 421.338 543.916 386.622 554.386 411.439C564.846 436.202 496.302 434.811 472.838 423.626C449.325 412.452 433.785 401.399 431.856 414.935C429.827 428.511 470.63 442.552 479.147 458.094C487.666 473.632 469.452 474.82 454.217 467.135C438.902 459.437 422.068 422.962 412.454 425.636C402.896 428.284 420.13 476.827 422.126 494.817C424.11 512.765 428.968 535.918 418.451 533.969C407.905 532.003 406.709 501.223 403.789 487.289C400.901 473.367 398.449 457.475 391.441 461.932C384.452 466.436 382.031 513.64 372.279 521.596C362.491 529.623 371.052 513.652 368.857 501.041C366.615 488.461 362.878 487.342 362.878 487.342C361.647 495.913 346.636 516.02 331.993 534.451C314.817 544.516 301.947 563.687 297.537 583.768C292.363 606.944 305.078 623.476 320.108 637.204C324.628 647.944 327.503 659.828 335.359 668.35C340.161 673.533 345.354 678.087 350.783 682.095C364.531 698.938 383.067 706.154 405.159 705.171C420.101 704.47 434.724 694.334 448.165 688.149C462.705 681.355 476.367 678.14 491.412 673.673C515.06 666.721 516.399 635.319 513.055 614.213C513.301 611.905 513.196 609.814 512.803 608.215C509.984 597.094 513.425 584.915 508.002 574.544C502.695 564.497 491.555 560.466 482.632 555.486C465.256 545.722 457.294 535.027 451.736 514.298C445.715 491.872 445.392 479.814 452.87 481.958C460.392 484.173 466.169 503.268 476.562 519.354C487.004 535.417 506.992 548.866 528.505 550.772L528.836 550.752C564.682 559.769 608.667 552.15 636.308 529.209C654.724 513.889 647.835 486.054 660.223 467.29C672 449.415 686.689 441.295 691.119 418.332C698.773 378.935 672.409 335.367 638.032 324.754C619.159 318.928 593.611 328.25 577.224 344.76C564.626 352.513 535.773 361.362 516.846 368.979C494.968 377.873 472.439 371.323 463.364 380.633Z" fill="#FE7A8F" fill-opacity="0.8"/>
<path d="M129.906 176.265C117.036 205.593 137.819 233.323 140.351 262.561C135.657 277.316 134.31 293.658 141.125 307.593C154.185 334.224 188.804 362.755 214.281 360.407C239.756 358.052 238.413 364.152 238.413 364.152C229.207 377.68 204.321 378.143 179.626 375.83C176.618 374.924 173.642 374.041 170.654 373.106C156.429 368.634 139.97 357.905 124.553 363.361C95.3525 373.855 84.5109 403.423 91.1936 435.316C99.0499 472.578 123.699 514.49 159.012 527.032C177.241 533.511 196.009 529.634 214.857 533.682C215.338 533.749 215.851 533.836 216.367 533.918C220.962 535.153 227.447 536.412 237.834 537.99C268.756 542.622 311.663 488.749 322.543 471.252C333.386 453.733 339.772 433.848 339.772 433.848C338.471 417.165 324.129 436.898 315.778 447.531C307.428 458.164 294.386 463.081 271.297 472.64C248.209 482.291 242.654 466.55 244.758 461.72C246.813 456.902 260.615 453.248 277.605 444.024C294.638 434.874 306.896 419.941 308.045 410.505C309.1 401.012 296.755 407.244 284.393 413.413C272.049 419.644 247.994 424.543 236.026 420.026C224.058 415.411 233.782 398.702 244.769 398.602C255.786 398.526 284.183 387.252 295.395 381.783C306.637 376.33 328.386 350.072 326.676 344.118C324.997 338.187 304.714 344.22 282.714 344.399C260.728 344.539 243.587 336.292 229.232 324.467C214.903 312.664 224.842 299.258 234.355 296.624C243.962 293.952 258.794 303.726 272.42 314.225C286.103 324.698 298.009 320.54 302.604 317.56C307.301 314.541 289.201 301.696 274.826 289.9C260.486 278.044 272.799 271.887 284.04 275.171C295.328 278.436 309.066 297.685 320.792 307.614C332.596 317.548 320.414 286.781 306.702 267.641C292.998 248.411 305.054 238.874 316.867 248.866C328.642 258.783 339.963 302.291 347.771 316.554C355.59 330.783 361.595 321.655 360.838 311.662C360.186 302.89 356.722 258.298 344.305 230.148C343.038 225.138 341.498 220.106 340.107 214.948C336.447 201.785 330.767 191.05 330.146 176.742C329.778 167.876 329.896 159.301 328.432 150.482C322.956 117.366 305.023 105.378 275.182 101.989C256.758 99.8649 239.004 106.326 222.65 115.789C184.566 118.144 146.311 138.772 129.906 176.265Z" fill="#FE7A8F" fill-opacity="0.8"/>
<g filter="url(#filter0_df_85_253)">
<path d="M362.889 397.025C359.93 426.741 342.955 477.668 311.818 511.637C288.848 536.589 248.06 573.071 222.049 593.785C227.88 575.563 229.53 550.843 210.074 546.577C201.388 544.705 184.459 546.901 179.988 554.314C174.531 563.375 181.05 582.905 185.915 591.609C170.33 572.389 145.839 550.241 128.237 582.51C112.274 611.658 155.873 625.444 173.516 625.556C163.35 631.471 152.834 633.262 143.449 641.351C134.066 649.436 128.741 664.348 138.765 675.215C149.633 687.017 169.025 685.221 180.805 677.036C187.151 672.543 196.637 662.188 199.33 652.057L200.143 652.018C198.602 668.501 208.76 691.888 225.075 688.768C234.692 686.954 242.001 672.058 242.62 662.484C243.191 653.09 238.293 644.536 231.119 639.724C238.143 642.216 251.302 643.738 257.854 639.622C265.211 634.94 271.572 621.852 266.901 611.969C262.741 603.291 251.53 598.042 240.424 597.515C245.684 593.754 321.508 538.802 364.242 472.647C407.503 405.77 405.675 352.119 389.829 346.603C373.977 341.176 365.848 367.308 362.889 397.025Z" fill="#DE4660" fill-opacity="0.8" shape-rendering="crispEdges"/>
</g>
<defs>
<filter id="filter0_df_85_253" x="123.785" y="344.884" width="283.345" height="352.166" filterUnits="userSpaceOnUse" color-interpolation-filters="sRGB">
<feFlood flood-opacity="0" result="BackgroundImageFix"/>
<feColorMatrix in="SourceAlpha" type="matrix" values="0 0 0 0 0 0 0 0 0 0 0 0 0 0 0 0 0 0 127 0" result="hardAlpha"/>
<feOffset dx="3" dy="4"/>
<feGaussianBlur stdDeviation="2"/>
<feComposite in2="hardAlpha" operator="out"/>
<feColorMatrix type="matrix" values="0 0 0 0 0 0 0 0 0 0 0 0 0 0 0 0 0 0 0.25 0"/>
<feBlend mode="normal" in2="BackgroundImageFix" result="effect1_dropShadow_85_253"/>
<feBlend mode="normal" in="SourceGraphic" in2="effect1_dropShadow_85_253" result="shape"/>
<feGaussianBlur stdDeviation="0.5" result="effect2_foregroundBlur_85_253"/>
</filter>
</defs>
</svg>
