<svg width="38" height="38" viewBox="0 0 38 38" fill="none" xmlns="http://www.w3.org/2000/svg">
<path d="M19.4648 12.8307C16.0678 12.8307 13.2956 15.603 13.2956 19C13.2956 22.397 16.0678 25.1693 19.4648 25.1693C22.8617 25.1693 25.6339 22.397 25.6339 19C25.6339 15.603 22.8617 12.8307 19.4648 12.8307ZM37.9677 19C37.9677 16.4453 37.9908 13.9137 37.8473 11.3636C37.7039 8.40159 37.0282 5.77281 34.8622 3.60685C32.6917 1.43626 30.0676 0.76518 27.1056 0.621708C24.551 0.478236 22.0194 0.501377 19.4694 0.501377C16.9147 0.501377 14.3832 0.478236 11.8331 0.621708C8.87117 0.76518 6.24244 1.44089 4.07652 3.60685C1.90597 5.77744 1.2349 8.40159 1.09143 11.3636C0.947963 13.9183 0.971103 16.4499 0.971103 19C0.971103 21.5501 0.947963 24.0863 1.09143 26.6364C1.2349 29.5984 1.9106 32.2272 4.07652 34.3931C6.24707 36.5637 8.87117 37.2348 11.8331 37.3783C14.3878 37.5218 16.9193 37.4986 19.4694 37.4986C22.0241 37.4986 24.5556 37.5218 27.1056 37.3783C30.0676 37.2348 32.6963 36.5591 34.8622 34.3931C37.0328 32.2226 37.7039 29.5984 37.8473 26.6364C37.9954 24.0863 37.9677 21.5547 37.9677 19ZM19.4648 28.4923C14.2119 28.4923 9.97264 24.2529 9.97264 19C9.97264 13.7471 14.2119 9.50771 19.4648 9.50771C24.7176 9.50771 28.9569 13.7471 28.9569 19C28.9569 24.2529 24.7176 28.4923 19.4648 28.4923ZM29.3456 11.3358C28.1192 11.3358 27.1288 10.3454 27.1288 9.11895C27.1288 7.8925 28.1192 6.90208 29.3456 6.90208C30.5721 6.90208 31.5625 7.8925 31.5625 9.11895C31.5628 9.41018 31.5057 9.69861 31.3945 9.96774C31.2832 10.2369 31.1199 10.4814 30.914 10.6873C30.708 10.8933 30.4635 11.0565 30.1944 11.1678C29.9253 11.2791 29.6368 11.3362 29.3456 11.3358Z" fill="url(#paint0_linear_132_510)"/>
<defs>
<linearGradient id="paint0_linear_132_510" x1="19.4697" y1="0.500001" x2="38.1943" y2="42.5" gradientUnits="userSpaceOnUse">
<stop offset="0.385417" stop-color="#FE7A8F"/>
<stop offset="1" stop-color="white"/>
</linearGradient>
</defs>
</svg>
