<svg width="28" height="32" viewBox="0 0 28 32" fill="none" xmlns="http://www.w3.org/2000/svg">
<path d="M14.7717 0.0278545C16.5167 0.000854492 18.2517 0.0168545 19.9847 0.000854492C20.0897 2.04185 20.8237 4.12085 22.3177 5.56385C23.8087 7.04285 25.9177 7.71985 27.9697 7.94885V13.3179C26.0467 13.2549 24.1147 12.8549 22.3697 12.0269C21.6097 11.6829 20.9017 11.2399 20.2087 10.7869C20.1997 14.6829 20.2247 18.5739 20.1837 22.4539C20.0797 24.3179 19.4647 26.1729 18.3807 27.7089C16.6367 30.2659 13.6097 31.9329 10.5007 31.9849C8.59375 32.0939 6.68875 31.5739 5.06375 30.6159C2.37075 29.0279 0.475746 26.1209 0.199746 23.0009C0.164981 22.3401 0.159642 21.6781 0.183746 21.0169C0.423746 18.4799 1.67875 16.0529 3.62675 14.4019C5.83475 12.4789 8.92775 11.5629 11.8237 12.1049C11.8507 14.0799 11.7717 16.0529 11.7717 18.0279C10.4487 17.5999 8.90275 17.7199 7.74675 18.5229C6.90099 19.08 6.26185 19.8998 5.92775 20.8559C5.65175 21.5319 5.73075 22.2829 5.74675 23.0009C6.06375 25.1889 8.16775 27.0279 10.4137 26.8289C11.9027 26.8129 13.3297 25.9489 14.1057 24.6839C14.3567 24.2409 14.6377 23.7879 14.6527 23.2669C14.7837 20.8819 14.7317 18.5069 14.7477 16.1219C14.7587 10.7469 14.7317 5.38685 14.7727 0.0288545L14.7717 0.0278545Z" fill="url(#paint0_linear_132_512)"/>
<defs>
<linearGradient id="paint0_linear_132_512" x1="14.0693" y1="0.000854492" x2="26.6237" y2="35.7864" gradientUnits="userSpaceOnUse">
<stop offset="0.385417" stop-color="#FE7A8F"/>
<stop offset="1" stop-color="white"/>
</linearGradient>
</defs>
</svg>
