<svg width="42" height="36" viewBox="0 0 42 36" fill="none" xmlns="http://www.w3.org/2000/svg">
<path d="M41.4195 4.81711C39.9319 5.50999 38.334 5.97815 36.6541 6.18975C38.3874 5.09949 39.6842 3.38354 40.3025 1.36209C38.674 2.37892 36.8916 3.09465 35.0329 3.47817C33.783 2.07531 32.1275 1.14548 30.3234 0.833024C28.5192 0.52057 26.6674 0.842981 25.0554 1.7502C23.4435 2.65742 22.1615 4.09869 21.4086 5.85025C20.6558 7.60181 20.4741 9.56565 20.8917 11.4369C17.5919 11.2627 14.3638 10.3611 11.4169 8.79067C8.47005 7.22019 5.87023 5.01591 3.78621 2.32088C3.07363 3.613 2.66389 5.11111 2.66389 6.7066C2.6631 8.14291 2.99958 9.55721 3.64348 10.824C4.28738 12.0909 5.21879 13.171 6.35507 13.9687C5.03728 13.9246 3.74857 13.5503 2.5962 12.8769V12.9893C2.59606 15.0038 3.25896 16.9563 4.47239 18.5155C5.68583 20.0746 7.37508 21.1445 9.2535 21.5435C8.03103 21.8913 6.74937 21.9425 5.50531 21.6933C6.03529 23.4267 7.06764 24.9424 8.45784 26.0283C9.84804 27.1143 11.5265 27.7161 13.2582 27.7494C10.3185 30.1753 6.688 31.4911 2.95071 31.4853C2.28868 31.4855 1.62722 31.4449 0.969727 31.3636C4.76329 33.9276 9.17928 35.2883 13.6893 35.2831C28.9564 35.2831 37.3025 21.9911 37.3025 10.4631C37.3025 10.0886 37.2936 9.71031 37.2776 9.33578C38.901 8.10167 40.3023 6.57345 41.4159 4.82273L41.4195 4.81711Z" fill="url(#paint0_linear_132_509)"/>
<defs>
<linearGradient id="paint0_linear_132_509" x1="21.1946" y1="0.716934" x2="45.9425" y2="42.1649" gradientUnits="userSpaceOnUse">
<stop offset="0.385417" stop-color="#FE7A8F"/>
<stop offset="1" stop-color="white"/>
</linearGradient>
</defs>
</svg>
